<svg width="125" height="16" viewBox="0 0 125 16" fill="none" xmlns="http://www.w3.org/2000/svg">
<g id="rate">
<path id="star" d="M69.6423 6.75403L65.3908 10.276L66.6416 16L62.5106 12.542L58.1136 15.816L59.8124 10.156L55.8463 6.45605L61.0268 6.41602L62.9734 0.855103L64.4766 6.49109L69.6423 6.75403Z" fill="#FFC600"/>
<path id="star copy 3" d="M42.1912 6.75403L37.9397 10.276L39.1905 16L35.0595 12.542L30.6625 15.816L32.3613 10.156L28.3952 6.45605L33.5757 6.41602L35.5223 0.855103L37.0255 6.49109L42.1912 6.75403Z" fill="#FFC600"/>
<path id="star copy 4" d="M14.7423 6.75403L10.4909 10.276L11.7416 16L7.61067 12.542L3.21364 15.816L4.91244 10.156L0.94635 6.45605L6.12681 6.41602L8.07347 0.855103L9.57666 6.49109L14.7423 6.75403Z" fill="#FFC600"/>
<path id="star copy" d="M97.0917 6.75403L92.8403 10.276L94.0911 16L89.9601 12.542L85.5631 15.816L87.2619 10.156L83.2957 6.45605L88.4762 6.41602L90.4229 0.855103L91.9261 6.49109L97.0917 6.75403Z" fill="#FFC600"/>
<path id="star copy 2" d="M124.543 6.75403L120.291 10.276L121.542 16L117.411 12.542L113.014 15.816L114.713 10.156L110.747 6.45605L115.927 6.41602L117.874 0.855103L119.377 6.49109L124.543 6.75403Z" fill="#C1C8CE"/>
</g>
</svg>
